<svg xmlns="http://www.w3.org/2000/svg" width="500" height="500" viewBox="0 0 500 500"><g><path fill="#000000" d="M430.335,261.043c-4.961-3.836-119.854-93.036-172.357-133.778c-5.793-4.495-10.144-4.509-15.942-0.003
		L70.337,260.507c-5.483,4.243-7.907,9.606-7.9,16.476c0.06,58.042,0.033,116.085,0.035,174.127c0,7.081,2.753,9.83,9.867,9.831
		c40.348,0.004,80.696,0.005,121.044-0.002c7.087-0.001,9.772-2.741,9.772-9.895c-0.002-40.161-0.006-80.322-0.003-120.483
		c0-7.61,2.537-10.174,10.04-10.175c24.527-0.003,49.054-0.004,73.582,0c7.506,0.001,10.098,2.602,10.098,10.143
		c0.004,39.693,0.002,79.386,0.002,119.079c0,1.03-0.016,2.06,0.007,3.089c0.116,5.106,3.134,8.1,8.298,8.233
		c1.029,0.026,2.059,0.006,3.089,0.006c39.598,0.002,79.197-0.007,118.796,0.015c7.839,0.004,10.467-2.552,10.467-10.394
		l-0.005-174.686C437.525,269.776,435.196,264.802,430.335,261.043z"/><path fill="#000000" d="M490.378,219.385c-27.359-21.234-54.716-42.471-82.109-63.661c-1.466-1.134-2.116-2.26-2.11-4.184
		c0.074-23.779,0.047-47.558,0.043-71.337c-0.002-7.129-2.722-9.869-9.813-9.872c-14.23-0.006-28.462,0.133-42.689-0.065
		c-5.873-0.081-10.333,2.614-10.033,10.054c0.327,8.115,0.074,16.253,0.074,25.219c-2.3-1.751-54.448-42.241-78.892-61.125
		c-9.345-7.219-20.356-7.104-29.805,0.067C231.688,47.026,81.296,163.771,9.416,219.547c-10.599,8.224-12.5,22.727-4.429,33.242
		c7.841,10.216,22.623,11.997,33.12,3.913c11.124-8.566,145.091-112.582,201.003-155.954c7.48-5.803,14.284-5.801,21.767-0.01
		c15.324,11.857,149.159,115.739,200.782,155.786c10.652,8.264,25.435,6.584,33.341-3.72
		C503.144,242.19,501.153,227.748,490.378,219.385z"/></g></path></svg>